<svg width="22" height="21" viewBox="0 0 22 21" fill="none" xmlns="http://www.w3.org/2000/svg">
<path d="M1.375 8.72461H4.125C4.45294 8.72461 4.65039 8.96862 4.65039 9.1875V19.6875C4.65039 19.9064 4.45294 20.1504 4.125 20.1504H1.375C1.04706 20.1504 0.849609 19.9064 0.849609 19.6875V9.1875C0.849609 8.96862 1.04706 8.72461 1.375 8.72461ZM9.625 0.849609H12.375C12.7029 0.849609 12.9004 1.09362 12.9004 1.3125V19.6875C12.9004 19.9064 12.7029 20.1504 12.375 20.1504H9.625C9.29706 20.1504 9.09961 19.9064 9.09961 19.6875V1.3125C9.09961 1.09362 9.29706 0.84961 9.625 0.849609ZM17.875 13.9746H20.625C20.9529 13.9746 21.1504 14.2186 21.1504 14.4375V19.6875C21.1504 19.9064 20.9529 20.1504 20.625 20.1504H17.875C17.5471 20.1504 17.3496 19.9064 17.3496 19.6875V14.4375C17.3496 14.2186 17.5471 13.9746 17.875 13.9746Z" stroke="#91919C" stroke-width="1.7"/>
</svg>
